<?xml version="1.0" encoding="UTF-8" standalone="no"?>
<svg
   xmlns:dc="http://purl.org/dc/elements/1.1/"
   xmlns:cc="http://creativecommons.org/ns#"
   xmlns:rdf="http://www.w3.org/1999/02/22-rdf-syntax-ns#"
   xmlns:svg="http://www.w3.org/2000/svg"
   xmlns="http://www.w3.org/2000/svg"
   xmlns:sodipodi="http://sodipodi.sourceforge.net/DTD/sodipodi-0.dtd"
   xmlns:inkscape="http://www.inkscape.org/namespaces/inkscape"
   width="169.23961mm"
   height="183.83965mm"
   viewBox="0 0 169.23961 183.83965"
   version="1.1"
   id="svg8"
   inkscape:version="1.0.1 (3bc2e813f5, 2020-09-07)"
   sodipodi:docname="heart.svg">
  <defs
     id="defs2" />
  <sodipodi:namedview
     id="base"
     pagecolor="#ffffff"
     bordercolor="#666666"
     borderopacity="1.0"
     inkscape:pageopacity="0.0"
     inkscape:pageshadow="2"
     inkscape:zoom="0.7"
     inkscape:cx="359.06438"
     inkscape:cy="283.13742"
     inkscape:document-units="mm"
     inkscape:current-layer="layer1"
     inkscape:document-rotation="0"
     showgrid="false"
     inkscape:snap-smooth-nodes="true"
     fit-margin-top="0"
     fit-margin-left="0"
     fit-margin-right="0"
     fit-margin-bottom="0"
     inkscape:snap-global="false" />
  <metadata
     id="metadata5">
    <rdf:RDF>
      <cc:Work
         rdf:about="">
        <dc:format>image/svg+xml</dc:format>
        <dc:type
           rdf:resource="http://purl.org/dc/dcmitype/StillImage" />
        <dc:title />
      </cc:Work>
    </rdf:RDF>
  </metadata>
  <g
     inkscape:label="Layer 1"
     inkscape:groupmode="layer"
     id="layer1"
     transform="translate(-19.701438,-49.513102)">
    <path
       id="path849"
       style="fill:#ffffff;fill-opacity:1;stroke:none;stroke-width:1.61062"
       d="M 64.142651,49.513102 C 39.59826,49.512773 19.701213,76.715283 19.701438,93.954288 c 0,91.567932 67.204785,74.403542 84.620142,139.398462 16.64479,-62.11881 84.61947,-44.58927 84.61947,-139.398462 2.8e-4,-21.500128 -15.00566,-44.441186 -44.44037,-44.441186 0,0 -40.1791,3.522797 -40.1791,32.147734 0,-30.154323 -19.229155,-32.147453 -40.178929,-32.147734 z"
       sodipodi:nodetypes="scccccs" />
    <path
       id="path859"
       style="fill:#e77676;fill-opacity:1;stroke:none;stroke-width:1.49803"
       d="M 66.951309,55.938697 C 44.122678,55.938391 25.616521,81.239328 25.61673,97.273251 c 0,85.166939 62.506879,69.202409 78.70483,129.653899 15.48124,-57.77643 78.7042,-41.47228 78.7042,-129.653899 2.6e-4,-19.997175 -13.9567,-41.334554 -41.3338,-41.334554 0,0 -37.3704,3.276538 -37.3704,29.900468 0,-28.046405 -17.884957,-29.900206 -37.370251,-29.900468 z"
       sodipodi:nodetypes="scccccs" />
    <path
       id="path843"
       style="fill:#71bea1;fill-opacity:1;stroke:none;stroke-width:1"
       d="M 79.375237,75.892375 C 64.136133,75.892172 51.782463,92.781657 51.782606,103.485 c 0,56.85269 41.726079,46.19567 52.538914,86.5497 10.33433,-38.56831 52.53837,-27.68457 52.53837,-86.5497 1.8e-4,-13.348987 -9.3167,-27.592625 -27.59212,-27.592625 0,0 -24.94625,2.187234 -24.94625,19.959875 0,-18.722207 -11.938991,-19.959701 -24.946283,-19.959875 z"
       sodipodi:nodetypes="scccccs" />
    <path
       id="path845"
       style="fill:#e77676;fill-opacity:1;stroke:none;stroke-width:1"
       d="M 79.375223,84.137352 C 64.13612,84.137148 51.782449,101.02663 51.782592,111.72998 c 0,56.85267 41.726079,46.19565 52.538908,86.54968 10.33435,-38.56831 52.5384,-27.68457 52.5384,-86.54968 1.8e-4,-13.348991 -9.3167,-27.592627 -27.59212,-27.592627 0,0 -24.94628,2.187233 -24.94628,19.959877 0,-18.722209 -11.938985,-19.959703 -24.946277,-19.959878 z"
       sodipodi:nodetypes="scccccs" />
    <path
       id="path847"
       style="fill:#71bea1;fill-opacity:1;stroke:none;stroke-width:1"
       d="M 79.375223,93.886773 C 64.13612,93.88657 51.782449,110.77607 51.782592,121.47941 c 0,56.85267 41.726081,46.19565 52.538908,86.54968 10.33435,-38.56831 52.5384,-27.68457 52.5384,-86.54968 1.8e-4,-13.34899 -9.3167,-27.592637 -27.59212,-27.592637 0,0 -24.94628,2.187233 -24.94628,19.959887 0,-18.722219 -11.938987,-19.959713 -24.946277,-19.959887 z"
       sodipodi:nodetypes="scccccs" />
  </g>
</svg>
